# File created by Blade
# Date/Time:  Tue Jan 27 17:01:45 2015
#---------------------------------------------------------
:version 1.10
:name HOM
:units
  mass 1.0
  length 1.000000
  angle deg
:documentation
     Acclaim Skeleton File
:root
   axis xyz
   order TX TY TZ RX RY RZ
   position 0.000000 0.000000 0.000000
   orientation 0 0 0
:bonedata
   begin
      id 1
      name Spine_dum
      direction 0.000000 1.000000 0.000000
      length 7.539951
      axis 0.0 0.0 0.0 xyz
   end
   begin
      id 2
      name LeftUpLeg_dum
      direction 1.000000 0.000000 0.000000
      length 3.345476
      axis 0.0 0.0 0.0 xyz
   end
   begin
      id 3
      name RightUpLeg_dum
      direction -1.000000 0.000000 0.000000
      length 3.345476
      axis 0.0 0.0 0.0 xyz
   end
   begin
      id 4
      name Spine
      direction 0.000000 1.000000 0.000000
      length 0.000000
      axis 0.0 0.0 0.0 xyz
      dof rx ry rz
   end
   begin
      id 5
      name Spine_dum1
      direction 0.000000 1.000000 0.000000
      length 15.093809
      axis 0.0 0.0 0.0 xyz
   end
   begin
      id 6
      name Spine_dum2
      direction 0.000000 1.000000 0.000000
      length 9.738928
      axis 0.0 0.0 0.0 xyz
   end
   begin
      id 7
      name Spine_dum3
      direction 0.000000 1.000000 0.000000
      length 9.738928
      axis 0.0 0.0 0.0 xyz
   end
   begin
      id 8
      name Head
      direction 0.000000 1.000000 0.000000
      length 4.527550
      axis 0.0 0.0 0.0 xyz
      dof rx ry rz
   end
   begin
      id 9
      name LeftShoulder
      direction 1.000000 0.000000 0.000000
      length 7.084015
      axis 0.0 0.0 -90.0 xyz
      dof rx ry rz
   end
   begin
      id 10
      name LeftArm
      direction 1.000000 0.000000 0.000000
      length 10.259319
      axis 0.0 0.0 -90.0 xyz
      dof rx ry rz
   end
   begin
      id 11
      name LeftForeArm
      direction 1.000000 0.000000 0.000000
      length 9.896984
      axis 0.0 0.0 -90.0 xyz
      dof ry rz rx
   end
   begin
      id 12
      name LeftHand
      direction 0.000000 0.000000 0.000000
      length 0.000000
      axis 0.0 0.0 -90.0 xyz
      dof rx ry rz
   end
   begin
      id 13
      name LeftHand_dum1
      direction 0.000000 0.000000 0.000000
      length 0.000000
      axis 0.0 0.0 -90.0 xyz
   end
   begin
      id 14
      name LeftHand_dum2
      direction 1.000000 0.000000 0.000000
      length 3.937000
      axis 0.0 0.0 -90.0 xyz
   end
   begin
      id 15
      name LeftHandThumb1
      direction 0.000000 0.000000 1.000000
      length 3.937000
      axis 0.0 0.0 -90.0 xyz
      dof rx rz ry
   end
   begin
      id 16
      name RightShoulder
      direction -1.000000 0.000000 0.000000
      length 7.084015
      axis 0.0 0.0 90.0 xyz
      dof rx ry rz
   end
   begin
      id 17
      name RightArm
      direction -1.000000 0.000000 0.000000
      length 10.259319
      axis 0.0 0.0 90.0 xyz
      dof rx ry rz
   end
   begin
      id 18
      name RightForeArm
      direction -1.000000 0.000000 0.000000
      length 9.896984
      axis 0.0 0.0 90.0 xyz
      dof ry rz rx
   end
   begin
      id 19
      name RightHand
      direction 0.000000 0.000000 0.000000
      length 0.000000
      axis 0.0 0.0 90.0 xyz
      dof rx ry rz
   end
   begin
      id 20
      name RightHand_dum1
      direction 0.000000 0.000000 0.000000
      length 0.000000
      axis 0.0 0.0 90.0 xyz
   end
   begin
      id 21
      name RightHand_dum2
      direction -1.000000 0.000000 0.000000
      length 3.937000
      axis 0.0 0.0 90.0 xyz
   end
   begin
      id 22
      name RightHandThumb1
      direction 0.000000 0.000000 1.000000
      length 3.937000
      axis 0.0 0.0 90.0 xyz
      dof rx rz ry
   end
   begin
      id 23
      name LeftUpLeg
      direction 0.000000 -1.000000 0.000000
      length 19.114733
      axis 0.0 0.0 0.0 xyz
      dof rx ry rz
   end
   begin
      id 24
      name LeftLeg
      direction 0.000000 -1.000000 0.000000
      length 16.045604
      axis 0.0 0.0 0.0 xyz
      dof rx ry rz
   end
   begin
      id 25
      name LeftFoot
      direction 0.000000 -0.258819 0.965926
      length 5.543155
      axis 15.0 0.0 0.0 xyz
      dof rx ry rz
   end
   begin
      id 26
      name LeftToeBase
      direction 0.000000 0.000000 1.000000
      length 2.952750
      axis 0.0 0.0 0.0 xyz
      dof rx ry rz
   end
   begin
      id 27
      name RightUpLeg
      direction 0.000000 -1.000000 0.000000
      length 19.114733
      axis 0.0 0.0 0.0 xyz
      dof rx ry rz
   end
   begin
      id 28
      name RightLeg
      direction 0.000000 -1.000000 0.000000
      length 16.045604
      axis 0.0 0.0 0.0 xyz
      dof rx ry rz
   end
   begin
      id 29
      name RightFoot
      direction 0.000000 -0.258819 0.965926
      length 5.543155
      axis 15.0 0.0 0.0 xyz
      dof rx ry rz
   end
   begin
      id 30
      name RightToeBase
      direction 0.000000 0.000000 1.000000
      length 2.952750
      axis 0.0 0.0 0.0 xyz
      dof rx ry rz
   end
:hierarchy
   begin
      root Spine_dum LeftUpLeg_dum RightUpLeg_dum
      Spine_dum Spine
      LeftUpLeg_dum LeftUpLeg
      RightUpLeg_dum RightUpLeg
      Spine Spine_dum1 Spine_dum2 Spine_dum3
      Spine_dum1 Head
      Spine_dum2 LeftShoulder
      Spine_dum3 RightShoulder
      LeftShoulder LeftArm
      LeftArm LeftForeArm
      LeftForeArm LeftHand
      LeftHand LeftHand_dum1 LeftHand_dum2
      LeftHand_dum1 LeftHandThumb1
      RightShoulder RightArm
      RightArm RightForeArm
      RightForeArm RightHand
      RightHand RightHand_dum1 RightHand_dum2
      RightHand_dum1 RightHandThumb1
      LeftUpLeg LeftLeg
      LeftLeg LeftFoot
      LeftFoot LeftToeBase
      RightUpLeg RightLeg
      RightLeg RightFoot
      RightFoot RightToeBase
   end

# File created by Blade
# Date/Time:  Tue Jan 27 17:01:38 2015
# Frame Rate: 120.000 fps
#------------------------------------------------------
:FULLY-SPECIFIED
:DEGREES
2657
root -1.356068 36.826232 5.140388 6.831943 12.056404 0.489665
Spine -5.445671 10.558219 -4.817801
Head 2.131726 15.884704 -1.648379
LeftShoulder -2.427932 -9.631738 -5.630181
LeftArm -2.722112 -37.872479 -61.386796
LeftForeArm -67.484940 -0.000000 98.440578
LeftHand 1.303694 0.000000 0.554691
LeftHandThumb1 -26.253704 0.000000 33.147579
RightShoulder 0.185131 -22.038919 -3.037257
RightArm 24.552854 -32.371614 55.093801
RightForeArm -148.215909 -0.000000 32.769922
RightHand -1.591650 -0.000000 -2.146760
RightHandThumb1 -24.326973 -0.000000 -32.862282
LeftUpLeg -6.605547 6.460447 5.012052
LeftLeg 7.553622 -0.000000 -0.000000
LeftFoot -13.557075 -1.234051 -20.726692
LeftToeBase 15.202515 -0.000000 -0.000000
RightUpLeg -5.474227 -15.888255 -0.434457
RightLeg 11.462186 -0.000000 -0.000000
RightFoot -19.504336 -8.690701 15.468641
RightToeBase 11.259796 -0.000000 -0.000000
2658
root -1.357921 36.826071 5.139582 6.850799 12.070912 0.490921
Spine -5.471291 10.589646 -4.819211
Head 2.131737 15.847545 -1.646539
LeftShoulder -2.440987 -9.643782 -5.595848
LeftArm -2.664860 -37.963531 -61.447024
LeftForeArm -67.510815 -0.000000 98.394736
LeftHand 1.283245 -0.000000 0.584976
LeftHandThumb1 -26.253704 0.000000 33.147579
RightShoulder 0.172490 -22.043028 -3.041364
RightArm 24.526204 -32.339713 55.138749
RightForeArm -148.266650 -0.000000 32.690687
RightHand -1.580681 -0.000000 -2.208780
RightHandThumb1 -24.326973 -0.000000 -32.862282
LeftUpLeg -6.625444 6.417968 5.019278
LeftLeg 7.548819 -0.000000 -0.000000
LeftFoot -13.553652 -1.235178 -20.762089
LeftToeBase 15.205808 -0.000000 -0.000000
RightUpLeg -5.480646 -15.859680 -0.431230
RightLeg 11.437856 -0.000000 -0.000000
RightFoot -19.488678 -8.697016 15.449892
RightToeBase 11.254125 -0.000000 -0.000000
2659
root -1.358597 36.825652 5.139535 6.856999 12.081837 0.496063
Spine -5.476557 10.610376 -4.813010
Head 2.113950 15.819550 -1.656635
LeftShoulder -2.477569 -9.683097 -5.577607
LeftArm -2.656346 -38.034270 -61.452542
LeftForeArm -67.507101 -0.000000 98.354181
LeftHand 1.215374 -0.000000 0.617806
LeftHandThumb1 -26.253704 0.000000 33.147579
RightShoulder 0.174908 -22.049845 -3.062251
RightArm 24.520546 -32.333946 55.156546
RightForeArm -148.253125 -0.000000 32.626412
RightHand -1.558304 -0.000000 -2.231803
RightHandThumb1 -24.326973 -0.000000 -32.862282
LeftUpLeg -6.625651 6.387095 5.022930
LeftLeg 7.536148 -0.000000 -0.000000
LeftFoot -13.541807 -1.247919 -20.770968
LeftToeBase 15.199559 -0.000000 -0.000000
RightUpLeg -5.499540 -15.882319 -0.430460
RightLeg 11.467107 -0.000000 -0.000000
RightFoot -19.519211 -8.701004 15.484443
RightToeBase 11.245541 -0.000000 -0.000000
2660
root -1.360628 36.825683 5.138329 6.890624 12.092297 0.499522
Spine -5.523233 10.649327 -4.820638
Head 2.115223 15.794144 -1.648785
LeftShoulder -2.484714 -9.719285 -5.556089
LeftArm -2.689920 -38.105504 -61.420347
LeftForeArm -67.544262 0.000000 98.318714
LeftHand 1.376874 -0.000000 0.565663
LeftHandThumb1 -26.253704 0.000000 33.147579
RightShoulder 0.177970 -22.030068 -3.071214
RightArm 24.447625 -32.328772 55.210368
RightForeArm -148.280785 -0.000000 32.595313
RightHand -1.509969 -0.000000 -2.239079
RightHandThumb1 -24.326973 -0.000000 -32.862282
LeftUpLeg -6.657487 6.359780 5.025845
LeftLeg 7.523793 -0.000000 -0.000000
LeftFoot -13.522878 -1.271434 -20.833416
LeftToeBase 15.170146 -0.000000 -0.000000
RightUpLeg -5.548920 -15.877989 -0.419072
RightLeg 11.497309 -0.000000 -0.000000
RightFoot -19.555130 -8.717791 15.486381
RightToeBase 11.312835 -0.000000 -0.000000
2661
root -1.361897 36.825660 5.139119 6.895342 12.108714 0.502391
Spine -5.527655 10.677954 -4.819208
Head 2.098663 15.781956 -1.642274
LeftShoulder -2.527280 -9.743283 -5.535545
LeftArm -2.681321 -38.178674 -61.410594
LeftForeArm -67.661558 -0.000000 98.298296
LeftHand 1.647156 0.000000 0.690806
LeftHandThumb1 -26.253704 0.000000 33.147579
RightShoulder 0.178624 -22.045999 -3.081830
RightArm 24.445869 -32.321674 55.212475
RightForeArm -148.232255 0.000000 32.556656
RightHand -1.511903 -0.000000 -2.269591
RightHandThumb1 -24.326973 -0.000000 -32.862282
LeftUpLeg -6.655211 6.316135 5.033616
LeftLeg 7.507168 -0.000000 -0.000000
LeftFoot -13.514804 -1.273578 -20.861602
LeftToeBase 15.202066 -0.000000 -0.000000
RightUpLeg -5.563752 -15.879900 -0.415831
RightLeg 11.526261 -0.000000 -0.000000
RightFoot -19.562079 -8.730288 15.487545
RightToeBase 11.274759 -0.000000 -0.000000
2662
root -1.363517 36.825648 5.139534 6.920724 12.143537 0.506895
Spine -5.558857 10.699859 -4.821477
Head 2.088934 15.736534 -1.648044
LeftShoulder -2.554213 -9.780282 -5.513946
LeftArm -2.712866 -38.284840 -61.396187
LeftForeArm -67.602581 0.000000 98.302863
LeftHand 1.461686 -0.000000 0.671231
LeftHandThumb1 -26.253704 0.000000 33.147579
RightShoulder 0.166201 -22.058831 -3.092211
RightArm 24.433271 -32.322999 55.224745
RightForeArm -148.218328 -0.000000 32.530712
RightHand -1.503916 0.000000 -2.259709
RightHandThumb1 -24.326973 -0.000000 -32.862282
LeftUpLeg -6.675230 6.246028 5.039642
LeftLeg 7.488959 -0.000000 -0.000000
LeftFoot -13.500939 -1.260188 -20.876908
LeftToeBase 15.165463 -0.000000 -0.000000
RightUpLeg -5.589579 -15.882809 -0.406883
RightLeg 11.535413 -0.000000 -0.000000
RightFoot -19.572238 -8.771534 15.483068
RightToeBase 11.243090 -0.000000 -0.000000
